<svg width="17" height="18" viewBox="0 0 17 18" fill="none" xmlns="http://www.w3.org/2000/svg">
<path d="M17.0182 17.306L12.7639 12.603C13.8525 11.2393 14.4542 9.48658 14.4569 7.671C14.4569 3.441 11.2199 0 7.24076 0C3.26165 0 0.0236816 3.441 0.0236816 7.671C0.0236816 11.901 3.26165 15.342 7.24076 15.342C8.71441 15.3483 10.1554 14.8645 11.3752 13.954L15.6622 18.694C15.8411 18.891 16.0818 19 16.3398 19C16.585 19 16.8166 18.9 16.9919 18.72C17.0806 18.6308 17.1519 18.5227 17.2015 18.4023C17.2511 18.2819 17.278 18.1516 17.2805 18.0194C17.2831 17.8872 17.2612 17.7558 17.2163 17.6332C17.1714 17.5106 17.1043 17.3993 17.0191 17.306H17.0182ZM7.24076 2.001C10.1817 2.001 12.575 4.545 12.575 7.671C12.575 10.798 10.1817 13.341 7.24076 13.341C4.29889 13.341 1.90652 10.798 1.90652 7.671C1.90652 4.545 4.29889 2.001 7.24076 2.001Z" fill="#F27A1A"/>
</svg>
