<svg width="442" height="249" viewBox="0 0 442 249" fill="none" xmlns="http://www.w3.org/2000/svg">
<g clip-path="url(#clip0)">
<path d="M249 190.5C250.2 190.9 282.5 201.333 298.5 206.5L317 205" stroke="#CD2226"/>
<path d="M92 139.5L42.5 162.5" stroke="#CD2226"/>
<path d="M39 159L120 123" stroke="#CD2226"/>
<path d="M110 132.5L125.5 125.5" stroke="#CD2226"/>
<path d="M23.5 155L20 151.5L54.5 96.5" stroke="#CD2226"/>
<path d="M53 145H61L67.5 130.5" stroke="#CD2226"/>
<path d="M75.5 54.5H78L80.5 56L83 61L121 59L119.5 56H127L130 58H140.5" stroke="#CD2226"/>
<path d="M73 58L75.5 56L80 58L86.5 69L119 66.5L121 69L141.5 67.5" stroke="#CD2226"/>
<path d="M75.5 51.5L78.5 50L83.5 51.5H135L138 52.5L139 55L142 60L145.5 64.5V68" stroke="#CD2226"/>
<path d="M180.5 90L162 80.5L148 65.5L146.5 67.5" stroke="#CD2226"/>
<path d="M200 60C200.4 61.2 201.833 63.8333 202.5 65L161 66L160 69" stroke="#CD2226"/>
<path d="M319.5 81L321.5 83L336 85.5L335 83L344 85.5" stroke="#CD2226"/>
<path d="M349 88.5L355 94.5L353 89.5L361.5 92" stroke="#CD2226"/>
<path d="M312.5 85L327.5 92L330.5 89.5L332 92L335.5 95.5L352.5 104" stroke="#CD2226"/>
<path d="M247.5 41H244.5L236 33.5H239.5L234.5 29.5" stroke="#CD2226"/>
<path d="M238 123L248 131.5L221.5 154.5L231.5 164" stroke="#CD2226"/>
<path d="M227 130L232.5 134.5L211 151.5L213.5 157L207.5 165" stroke="#CD2226"/>
<path d="M308 162.5L319 177.5L322 191L329 202.5" stroke="#CD2226"/>
<path d="M314.5 159L329 182V188.5L332.5 196" stroke="#CD2226"/>
<path d="M197 168.5L118.5 210" stroke="#CD2226"/>
<path d="M192 166L113 206.5" stroke="#CD2226"/>
<path d="M118.5 216L128.5 222L241 212.5" stroke="#CD2226"/>
<path d="M258.5 198C260.1 198.4 285.5 204.5 298 207.5L318 206" stroke="#CD2226"/>
<path d="M218.5 97L215.5 99L220.5 103" stroke="#CD2226"/>
<path d="M230.5 82L174 116.5L179.5 120" stroke="#CD2226"/>
<path d="M230 75.5C228 76.3 160.167 118.167 126.5 139" stroke="#CD2226"/>
<path d="M46.5 6L66.5 3.5L75 6L93 11.5L105.5 14.5L109.5 9.5L113.5 6L118.5 3.5L127.5 4.5L130 2.5L145.5 0L175.5 14.5L193.5 18L208 20.5L209.5 19L218 20.5L227 22.5L236.5 26L240.5 18L243.5 19L240.5 26L250.5 30L263.5 35.5L277.5 40.5L292 46.5L299 49L303 42H304.5L301.5 51L310.5 54.5L323.5 61L333.5 67L343.5 72.5L348 65L350.5 66L349 75L357 80L369 87L377.5 93.5L384 99L393 104.5L396 99L398 100L399.5 109L401 112L408.5 119L414 123L415 125L414 126.5L410.5 128.5L412.5 131L417 133.5L425.5 143L432 151.5L436.5 160.5L439.5 166.5L442 176.5L441 183L436.5 180.5L435 183V189.5V193V196L427.5 195H424.5L419.5 203L422 206L418.5 207.5L415 210L410.5 215V217.5L408.5 219L412.5 220.5L410.5 222.5L406 226L400 227.5L394 229H384L375.5 230H368.5H359L349.5 229L345.5 227.5L344 229L342.5 231H338H334.5H331H328V229L326 227.5L322.5 226H320.5L317 227.5L315 229L313 227.5L308 229H303L300 227.5H295.5L278.5 229L257 231L254.5 233V236H251.5L250.5 237.5H245L240 236L232 237.5H228.5L214.5 239L189 240.5L175 242.5L152.5 245.5L122.5 247.5L114 249L109.5 247.5L107.5 245.5L99.5 240.5L88 233L86 235L82.5 234L84 231.5L82.5 230V227.5L84 225.5L82.5 222L84 217L86 215.5V214L88 212V210L90.5 208.5L93 206.5L96.5 204.5L111 197L116 193.5V192L128.5 185L104.5 170L101.5 163L122.5 150L119 147.5L108.5 153V154.5L100.5 159V161.5L93 165.5L66 179H63L46.5 186L30.5 193L28.5 195H24.5V193L23 191.5L21.5 188L5.5 177L2 174L4 171V168L5.5 164.5L8 160V157V154.5L16.5 140L29 120.5L37 107.5L39 103.5L41 99.5L44.5 94.5V91.5L46 88.5L48 87H51.5L53.5 84L55.5 82L57.5 78.5V75L59 71.5V69L60 66V63.5L61.5 59.5L62.5 57H60L55.5 58L51.5 59.5L44.5 61.5L37 62.5L24 59.5L13 57L4.5 50.5L1 44L0 37L1 32L4.5 26L7.5 23L24 11.5L27.5 9.5L46.5 6Z" stroke="#0C78ED"/>
<path d="M242 46.5H241M311.5 79.5L310.5 86L305 89H295L282 86L269.5 82L258.5 77.5L246 70.5L238.5 65.5L232 60L229.5 55.5V51L232 48L236 46.5H241M311.5 79.5L308 74L300.5 68.5L290.5 62L281 57L272.5 53L263.5 50L255.5 48L249.5 46.5H241M311.5 79.5V91.5L307 95L301.5 96H295L289 95L281 94M229 51L225 56L226 61.5L228.5 65M228.5 65L231 65.5L232 67L235 68.5L243 72.5L247 76L255.5 80.5L262.5 84L268.5 87L274.5 90L281 94M228.5 65H225V63H222L220.5 61.5L219 63L218 65L213.5 67L212.5 68.5L212 71L210.5 72.5L209 71.5L205 73.5L183 86V88.5L181.5 90.5L171.5 97L136.5 121.5L116 135L109 141.5L158 171L194 156.5L196 154L211.5 140L222.5 132.5H224.5L226 130.5V128L233.5 124L237 121L240.5 122L263.5 105L268 102.5L269.5 103.5L277.5 98.5L282 101L281 94" stroke="#0C78ED"/>
<path d="M203.5 47L193.5 43L182.5 38.5L175 36.5L142.5 26L118.5 18.7547M203.5 47L204 59H199L182.5 56.5L156 52.5L120 49L92.5 47H74.5L78 35.5L79.5 26.5L77 14L71 5L116 18L118.5 18.7547M203.5 47L220.5 55L228.5 51.5M236 46.5L235 44.5L222 37L197.5 25.5L175 14.5L145 0L130 2.5L127 5L118.5 18.7547" stroke="#0C78ED"/>
<path d="M74.5 47V52L69.5 61L77.5 65L79.5 62L84 70.5L92 81.5L96 87V89.5L100.5 94.5L103 98L96 101.5L90.5 107L99.5 113L116 108.5L123 115L117.5 120L123 123L129.5 125L132 123H133" stroke="#0C78ED"/>
<path d="M194 157V160L191.5 165L202.5 171L208 168L221.5 174L216 179.5C214.167 181.167 210.8 184.5 212 184.5C213.2 184.5 220.167 188.167 223.5 190L239.5 182L257 188L281.5 196.5L306.5 202L317.5 203.5L321.5 209H326L330.5 213.5L336.5 215H348.5H359H386.5L394 213.5L409.5 210.5L422 206L409.5 191L400.5 179.5L380 159.5L361.5 144L340.5 126.5L327.5 116.5L318 109M318 109L319.5 114.5L321.5 123V133.5L314.5 146.5M318 109L314.5 104.5L309.5 101L302 97.5M314.5 146.5V151.5L313 158L307.5 162H300L291.5 158L287 156.5M314.5 146.5L308.5 151L300.5 155L293 156.5H287M287 156.5L279.5 153L273 146.5L268.5 136.5V126.5L271 116.5L274.5 111L279.5 104.5L285.5 101L294 97.5H302M302 97.5H307.5L309.5 96.0455M400.5 180.5L412.5 158M412.5 158L420.5 150L410.5 141.5L384.5 126.5L356.5 111L335 98.5L319.5 90L313 93.5L309.5 96.0455M412.5 158L309.5 96.0455M234.5 44.5L220 48.5L130 2.5" stroke="#0C78ED"/>
<path d="M220 48.5L220.5 55" stroke="#0C78ED"/>
<path d="M254.5 88.5C253.3 88.9 185.667 133 152 155" stroke="#CD2226"/>
<path d="M233 84L180.5 116.5L183 118.5" stroke="#CD2226"/>
<path d="M241 86.5L246.5 90L187.5 129" stroke="#CD2226"/>
<path d="M232 88L228 90.5L234.5 94.5L185.5 126" stroke="#CD2226"/>
</g>
<defs>
<clipPath id="clip0">
<rect width="442" height="249" fill="white"/>
</clipPath>
</defs>
</svg>
