<svg width="363" height="357" viewBox="0 0 363 357" fill="none" xmlns="http://www.w3.org/2000/svg">
<path d="M177.384 350.754L108.388 292.709C104.461 289.405 106.797 283 111.929 283L249.922 283C255.053 283 257.389 289.405 253.462 292.709L184.466 350.754C182.419 352.476 179.431 352.476 177.384 350.754Z" fill="#232323" stroke="#0F0F0F" stroke-width="5"/>
<path d="M181.664 344.023C180.937 344.596 179.913 344.596 179.186 344.023L141.217 314.07C139.727 312.895 140.558 310.5 142.455 310.5H218.395C220.292 310.5 221.123 312.895 219.634 314.07L181.664 344.023Z" fill="#0F0F0F"/>
<path d="M31.4252 216L45.9252 182L54.9252 175.5L124.925 297.5L20.9252 265L31.4252 216Z" fill="black"/>
<path d="M332.425 214.5L317.925 180.5L308.925 174L238.925 296L342.925 263.5L332.425 214.5Z" fill="black"/>
<path d="M312.925 149C312.925 170.894 309.6 185.801 303.669 195.956C297.807 205.994 289.249 211.64 278.123 214.728C266.88 217.849 253.107 218.33 236.999 217.989C231.021 217.863 224.7 217.622 218.094 217.37C207.077 216.95 195.267 216.5 182.925 216.5C170.653 216.5 158.82 216.945 147.712 217.363C140.953 217.618 134.463 217.862 128.305 217.989C111.872 218.33 97.649 217.85 85.955 214.722C74.363 211.621 65.3724 205.951 59.1989 195.908C52.963 185.763 49.4252 170.873 49.4252 149C49.4252 105.367 63.4926 70.5339 87.0885 46.6188C110.686 22.702 144.014 9.5 182.925 9.5C221.829 9.5 254.264 22.6963 276.98 46.5856C299.705 70.4854 312.925 105.323 312.925 149Z" fill="#232323" stroke="#0F0F0F" stroke-width="5"/>
<path d="M67.9252 197H297.925L243.425 293.5H123.925L67.9252 197Z" fill="#232323"/>
<path d="M166.805 104.182L163.356 132.592L142.968 123.233L142.764 123.14L142.547 123.084L127.047 119.101L126.741 119.022L126.425 119.022L97.4252 119.022L96.4908 119.022L95.7855 119.635L78.7855 134.405L78.5489 134.611L78.3703 134.868L64.4675 154.932L64.4253 154.992L64.3868 155.056L46.6243 184.242L46.5305 184.397L46.4598 184.563L30.751 221.452L30.6632 221.658L30.6135 221.877L25.0991 246.116L18.0354 269.011L14.1544 280.558L16.7041 241.097L16.7064 241.064L19.6719 203.004L29.301 175.64L42.6944 147.736L54.8105 127.044L77.4955 104.278L110.855 91.9168L147.529 93.9109L166.805 104.182Z" fill="#232323" stroke="#0F0F0F" stroke-width="5"/>
<path d="M195.855 105.165L199.303 133.574L219.691 124.216L219.895 124.122L220.112 124.066L235.612 120.083L235.918 120.004L236.234 120.004L265.234 120.004L266.168 120.004L266.874 120.617L283.874 135.387L284.11 135.593L284.289 135.85L298.192 155.914L298.234 155.975L298.273 156.038L316.035 185.224L316.129 185.379L316.2 185.545L331.908 222.434L331.996 222.64L332.046 222.859L337.56 247.099L344.624 269.993L348.505 281.54L345.955 242.08L345.953 242.047L342.987 203.986L333.358 176.622L319.965 148.718L307.849 128.026L285.164 105.26L251.804 92.8989L215.13 94.893L195.855 105.165Z" fill="#232323" stroke="#0F0F0F" stroke-width="5"/>
<path d="M157.552 132.925L168.62 2.5H193.819L208.249 132.853L196.955 138.5H182.221L166.523 138.006L157.552 132.925Z" fill="#232323" stroke="#0F0F0F" stroke-width="5"/>
<rect x="158.66" y="10.0078" width="5" height="86.3713" transform="rotate(5.221 158.66 10.0078)" fill="#0F0F0F"/>
<rect x="20.9252" y="265.507" width="8" height="105.155" transform="rotate(-69.7889 20.9252 265.507)" fill="#0F0F0F"/>
<rect x="47.0578" y="177.638" width="8" height="139.544" transform="rotate(-33.274 47.0578 177.638)" fill="#0F0F0F"/>
<rect width="8" height="132.892" transform="matrix(-0.836056 -0.548644 -0.548644 0.836056 315.524 183.199)" fill="#0F0F0F"/>
<rect width="8" height="105.155" transform="matrix(-0.345479 -0.938426 -0.938426 0.345479 343.369 265.507)" fill="#0F0F0F"/>
<rect width="5" height="86.3713" transform="matrix(-0.994483 0.104896 0.104896 0.994483 205.301 10.0243)" fill="#0F0F0F"/>
<path d="M171.926 138.5H193.984L190.458 160.097L190.425 160.297V160.5V175.5H175.925V160.5V160.272L175.884 160.048L171.926 138.5Z" fill="#232323" stroke="#0F0F0F" stroke-width="5"/>
<rect x="175.925" y="150" width="16" height="5" fill="#0F0F0F"/>
<rect x="174.925" y="161" width="16" height="5" fill="#0F0F0F"/>
<path d="M166.925 163.777C166.925 185.592 148.292 179.277 121.292 189.277C97.2917 189.277 75.9252 190.592 75.9252 168.777C75.9252 146.962 95.2917 115.777 136.792 129.277C159.792 142.277 166.925 139.277 166.925 163.777Z" fill="black"/>
<path d="M163.925 171.884L159.425 178.884L149.425 187.384L136.425 195.384L118.925 202.384L105.925 205.384L91.9252 205.384" stroke="black" stroke-width="3"/>
<path d="M199.292 164.054C199.292 185.869 217.925 179.553 244.925 189.553C268.925 189.553 290.292 190.869 290.292 169.054C290.292 147.238 270.925 116.053 229.425 129.554C206.425 142.553 199.292 139.554 199.292 164.054Z" fill="black"/>
<path d="M203.785 172.884L208.285 179.884L218.285 188.384L231.285 196.384L248.785 203.384L261.785 206.384L275.785 206.384" stroke="black" stroke-width="3"/>
<path d="M175.925 203.645L164.425 203.645L152.425 208.5L141.425 217.5L130.425 227.5L124.925 237.5L122.425 246" stroke="black" stroke-width="3"/>
<path d="M191.166 204.166L202.666 204.166L214.666 209.021L225.666 218.021L236.666 228.021L242.166 238.021L244.666 246.521" stroke="black" stroke-width="3"/>
<path d="M173.966 204.065C177.758 197.124 187.726 197.124 191.518 204.065L240.32 293.403C243.96 300.067 239.137 308.197 231.544 308.197H133.94C126.347 308.197 121.524 300.067 125.164 293.403L173.966 204.065Z" fill="black"/>
<rect x="175.286" y="208.488" width="4.93117" height="96.6918" transform="rotate(28.7536 175.286 208.488)" fill="#1B1B1B"/>
<rect width="4.93117" height="96.6918" transform="matrix(-0.876696 0.481044 0.481044 0.876696 190.147 207.725)" fill="#1B1B1B"/>
<rect width="4.93117" height="82.5971" transform="matrix(1 0 0 -1 172.263 301.417)" fill="#1B1B1B"/>
<rect width="4.93117" height="54.2429" transform="matrix(1 0 0 -1 155.004 300.184)" fill="#1B1B1B"/>
<rect width="4.93117" height="54.2429" transform="matrix(1 0 0 -1 205.549 300.184)" fill="#1B1B1B"/>
<rect width="4.93117" height="82.5971" transform="matrix(1 0 0 -1 189.522 301.417)" fill="#1B1B1B"/>
<rect width="4.93117" height="96.6918" transform="matrix(0 -1 -1 0 225.807 303.882)" fill="#1B1B1B"/>
<rect x="226.54" y="289.123" width="19.6559" height="19.6559" rx="9.82793" fill="#656565" stroke="#0F0F0F" stroke-width="5"/>
<rect x="174.763" y="192.966" width="17.1903" height="30.751" rx="6.5" fill="#656565" stroke="#0F0F0F" stroke-width="5"/>
<rect x="118.055" y="289.123" width="19.6559" height="19.6559" rx="9.82793" fill="#656565" stroke="#0F0F0F" stroke-width="5"/>
</svg>
