<svg width="19" height="19" viewBox="0 0 19 19" fill="none" xmlns="http://www.w3.org/2000/svg">
<path d="M18.7109 17.306L14.027 12.603C15.2255 11.2393 15.8879 9.48658 15.8909 7.671C15.8909 3.441 12.327 0 7.94597 0C3.56499 0 0 3.441 0 7.671C0 11.901 3.56499 15.342 7.94597 15.342C9.56845 15.3483 11.155 14.8645 12.498 13.954L17.2179 18.694C17.4149 18.891 17.6799 19 17.9639 19C18.2339 19 18.4889 18.9 18.6819 18.72C18.7796 18.6308 18.8581 18.5227 18.9127 18.4023C18.9673 18.2819 18.9969 18.1516 18.9997 18.0194C19.0025 17.8872 18.9785 17.7558 18.929 17.6332C18.8795 17.5106 18.8057 17.3993 18.7119 17.306H18.7109ZM7.94597 2.001C11.184 2.001 13.819 4.545 13.819 7.671C13.819 10.798 11.184 13.341 7.94597 13.341C4.70698 13.341 2.07299 10.798 2.07299 7.671C2.07299 4.545 4.70698 2.001 7.94597 2.001Z" fill="white"/>
</svg>
