<svg width="20" height="16" viewBox="0 0 20 16" fill="none" xmlns="http://www.w3.org/2000/svg">
<path d="M10.5685 13.7957C11.5636 13.1852 12.5491 12.4969 13.4595 11.7451C15.9627 9.67779 17.4356 7.52344 17.4356 5.43236C17.4356 0.912598 11.0522 -0.0154943 10.2996 4.14822C10.1513 4.9688 8.87597 4.9688 8.72766 4.14817C7.97529 -0.0154629 1.59373 0.912552 1.59373 5.43231C1.59373 7.52345 3.06619 9.67781 5.56886 11.7451C6.47907 12.4969 7.46432 13.1852 8.45915 13.7957C8.86912 14.0473 9.22695 14.2536 9.51368 14.4107C9.80048 14.2536 10.1584 14.0473 10.5685 13.7957L10.5685 13.7957ZM9.51361 16C9.34764 16.0007 9.18729 15.9524 9.0542 15.867C8.70191 15.6851 8.19244 15.4009 7.57793 15.0238C6.52357 14.3768 5.47883 13.6469 4.50717 12.8443C1.69878 10.5245 0 8.03903 0 5.43238C0 -0.0029788 6.99371 -1.71807 9.51371 1.93527C12.0342 -1.71809 19.0293 -0.00299453 19.0293 5.43238C19.0293 8.03911 17.33 10.5246 14.5211 12.8444C13.5492 13.647 12.5042 14.3769 11.4496 15.0239C10.835 15.401 10.3254 15.6852 9.97297 15.867C9.83989 15.9524 9.67955 16.0007 9.51358 16L9.51361 16Z" fill="#F27A1A"/>
<ellipse cx="6" cy="6.5" rx="5" ry="5.5" fill="#F27A1A"/>
<ellipse cx="13" cy="6.5" rx="5" ry="5.5" fill="#F27A1A"/>
<ellipse cx="9" cy="9.5" rx="5" ry="5.5" fill="#F27A1A"/>
</svg>
