<?xml version="1.0" encoding="UTF-8"?>
<svg width="10px" height="8px" viewBox="0 0 10 8" version="1.1" xmlns="http://www.w3.org/2000/svg" xmlns:xlink="http://www.w3.org/1999/xlink">
    <!-- Generator: Sketch 52.6 (67491) - http://www.bohemiancoding.com/sketch -->
    <title>Fill 1</title>
    <desc>Created with Sketch.</desc>
    <defs>
        <path d="M9.5899229,0.750904919 L9.05581016,0.197010226 C8.92929033,0.0656835157 8.77535917,1.47881707e-13 8.59444438,1.47881707e-13 C8.41337405,1.47881707e-13 8.25948178,0.0656835157 8.13292307,0.197010226 L3.64220797,4.8610237 L1.64705174,2.78491655 C1.52033751,2.65354952 1.36656187,2.58794665 1.18564708,2.58794665 C1.00461564,2.58794665 0.85080112,2.65354952 0.724125768,2.78491655 L0.190013028,3.33885157 C0.0633376759,3.47017828 -5.00932629e-13,3.62977027 -5.00932629e-13,3.81746626 C-5.00932629e-13,4.00500096 0.0633376759,4.16471392 0.190013028,4.29604063 L2.25776069,6.44037154 L3.18076443,7.39743963 C3.30736202,7.52888731 3.46121541,7.59449018 3.64220797,7.59449018 C3.82312277,7.59449018 3.97697617,7.5286857 4.10365152,7.39743963 L5.02661638,6.44037154 L9.5899229,1.70805366 C9.71648161,1.57668663 9.77993593,1.41717528 9.77993593,1.22943897 C9.78001369,1.04186394 9.71648161,0.882271951 9.5899229,0.750904919" id="path-1"></path>
    </defs>
    <g id="Search-Result" stroke="none" stroke-width="1" fill="none" fill-rule="evenodd">
        <g id="New-Filter-Style-1" transform="translate(-165.000000, -567.000000)">
            <g id="Group-23" transform="translate(156.000000, 503.000000)">
                <g id="Group-24" transform="translate(9.000000, 64.000000)">
                    <mask id="mask-2" fill="white">
                        <use xlink:href="#path-1"></use>
                    </mask>
                    <use id="Fill-1" fill="#FFFFFF" xlink:href="#path-1"></use>
                </g>
            </g>
        </g>
    </g>
</svg>