<svg width="18" height="16" viewBox="0 0 18 16" fill="none" xmlns="http://www.w3.org/2000/svg">
<path d="M15.4325 11.8321C15.8392 11.8321 16.1689 12.1345 16.1689 12.5075C16.1689 12.8805 15.8392 13.1829 15.4325 13.1829H5.47533C4.52916 13.1829 3.7011 12.4986 3.5859 11.6247L2.54661 4.90052L1.95364 1.75127C1.92477 1.53655 1.71125 1.35128 1.49991 1.35128L0.716526 1.35125C0.31761 1.34116 0 1.04164 0 0.675641C0 0.309641 0.317681 0.0101222 0.719267 0H1.49994C2.45637 0 3.29346 0.684359 3.40873 1.55542L4.00002 4.69066L5.04441 11.4489C5.07104 11.6547 5.27402 11.8321 5.47487 11.8321H15.4326H15.4325ZM16.9295 2.23244C17.3114 2.62763 17.4859 3.1835 17.4096 3.76265L16.4442 8.83518C16.3303 9.69459 15.5035 10.3658 14.5672 10.3656L6.29548 10.9275C5.99945 10.9456 5.72042 10.7992 5.58729 10.5561C5.45415 10.3129 5.4927 10.0202 5.6854 9.81295C5.81344 9.67601 5.99197 9.59356 6.18765 9.5807L14.5129 9.01634C14.746 9.01523 14.9621 8.84403 14.9897 8.63672L15.9541 3.56475C15.9755 3.40139 15.9238 3.22683 15.8262 3.12525C15.777 3.07124 15.7039 3.04045 15.6257 3.04149L5.00764 3.04146C4.60872 3.03137 4.29108 2.73188 4.29108 2.36585C4.29108 1.99982 4.60872 1.70033 5.01038 1.69021H15.6257C16.1291 1.69021 16.5935 1.88345 16.9249 2.22809L16.9294 2.2325L16.9295 2.23244ZM5.63641 16L5.63367 16C4.8876 16 4.28278 15.4452 4.28278 14.7609C4.28278 14.0765 4.8876 13.5218 5.63645 13.5218C6.36789 13.5405 6.95024 14.0897 6.95024 14.7609C6.95024 15.432 6.36789 15.9813 5.63645 15.9999L5.63641 16ZM14.2197 16C13.4828 15.9813 12.9004 15.4321 12.9004 14.7609C12.9004 14.0897 13.4828 13.5405 14.2197 13.5219C14.9512 13.5405 15.5335 14.0897 15.5335 14.7609C15.5335 15.4321 14.9511 15.9813 14.2197 16Z" fill="#F27A1A"/>
<rect x="3" y="1.7" width="13" height="4.2" fill="#F27A1A"/>
<rect x="4" y="9" width="11" height="1" fill="#F27A1A"/>
<rect x="3.96938" y="9.99149" width="2.3491" height="1.06774" transform="rotate(-3.2639 3.96938 9.99149)" fill="#F27A1A"/>
<rect x="4" y="5" width="12" height="4" fill="#F27A1A"/>
</svg>
